<svg width="15" height="18" viewBox="0 0 15 18" fill="none" xmlns="http://www.w3.org/2000/svg">
<path d="M4.152 12.108C3.032 12.108 2.136 11.86 1.464 11.364C0.792 10.86 0.4 10.152 0.288 9.24H2.064C2.12 9.704 2.344 10.072 2.736 10.344C3.128 10.608 3.628 10.74 4.236 10.74C4.732 10.74 5.112 10.652 5.376 10.476C5.648 10.3 5.784 10.064 5.784 9.768C5.784 9.488 5.704 9.264 5.544 9.096C5.384 8.92 5.108 8.78 4.716 8.676L3.108 8.232C2.284 8 1.68 7.684 1.296 7.284C0.92 6.876 0.732 6.368 0.732 5.76C0.732 5.24 0.864 4.792 1.128 4.416C1.4 4.032 1.78 3.74 2.268 3.54C2.756 3.332 3.328 3.228 3.984 3.228C4.992 3.228 5.796 3.468 6.396 3.948C6.996 4.42 7.336 5.048 7.416 5.832H5.64C5.56 5.408 5.364 5.096 5.052 4.896C4.748 4.696 4.356 4.596 3.876 4.596C3.46 4.596 3.128 4.676 2.88 4.836C2.632 4.996 2.508 5.212 2.508 5.484C2.508 5.692 2.576 5.884 2.712 6.06C2.848 6.228 3.132 6.372 3.564 6.492L5.172 6.936C6.02 7.168 6.628 7.488 6.996 7.896C7.372 8.296 7.56 8.804 7.56 9.42C7.56 10.284 7.26 10.948 6.66 11.412C6.06 11.876 5.224 12.108 4.152 12.108Z" fill="black"/>
<path d="M9.152 15.108C8.032 15.108 7.136 14.86 6.464 14.364C5.792 13.86 5.4 13.152 5.288 12.24H7.064C7.12 12.704 7.344 13.072 7.736 13.344C8.128 13.608 8.628 13.74 9.236 13.74C9.732 13.74 10.112 13.652 10.376 13.476C10.648 13.3 10.784 13.064 10.784 12.768C10.784 12.488 10.704 12.264 10.544 12.096C10.384 11.92 10.108 11.78 9.716 11.676L8.108 11.232C7.284 11 6.68 10.684 6.296 10.284C5.92 9.87597 5.732 9.36797 5.732 8.75997C5.732 8.23997 5.864 7.79197 6.128 7.41597C6.4 7.03197 6.78 6.73997 7.268 6.53997C7.756 6.33197 8.328 6.22797 8.984 6.22797C9.992 6.22797 10.796 6.46797 11.396 6.94797C11.996 7.41997 12.336 8.04797 12.416 8.83197H10.64C10.56 8.40797 10.364 8.09597 10.052 7.89597C9.748 7.69597 9.356 7.59597 8.876 7.59597C8.46 7.59597 8.128 7.67597 7.88 7.83597C7.632 7.99597 7.508 8.21197 7.508 8.48397C7.508 8.69197 7.576 8.88397 7.712 9.05997C7.848 9.22797 8.132 9.37197 8.564 9.49197L10.172 9.93597C11.02 10.168 11.628 10.488 11.996 10.896C12.372 11.296 12.56 11.804 12.56 12.42C12.56 13.284 12.26 13.948 11.66 14.412C11.06 14.876 10.224 15.108 9.152 15.108Z" fill="black"/>
</svg>
